<mxfile host="app.diagrams.net" modified="2024-06-18T19:17:36.888Z" agent="Mozilla/5.0 (Windows NT 10.0; Win64; x64) AppleWebKit/537.36 (KHTML, like Gecko) Chrome/126.0.0.0 Safari/537.36" etag="LKDP2L9Hnn5-WcG70bCd" version="24.5.5" type="github">
  <diagram id="R2lEEEUBdFMjLlhIrx00" name="Page-1">
    <mxGraphModel dx="6586" dy="4728" grid="1" gridSize="10" guides="1" tooltips="1" connect="1" arrows="1" fold="1" page="1" pageScale="1" pageWidth="850" pageHeight="1100" math="0" shadow="0" extFonts="Permanent Marker^https://fonts.googleapis.com/css?family=Permanent+Marker">
      <root>
        <mxCell id="0" />
        <mxCell id="1" parent="0" />
        <mxCell id="Gb3tEwWbbEehNKneOIiz-52" style="edgeStyle=orthogonalEdgeStyle;rounded=1;orthogonalLoop=1;jettySize=auto;html=1;curved=0;strokeColor=#f00000;strokeWidth=3;" parent="1" source="zYBaCCxZsCV0XoSq2q6j-1" target="Gb3tEwWbbEehNKneOIiz-23" edge="1">
          <mxGeometry relative="1" as="geometry">
            <Array as="points">
              <mxPoint x="650" y="600" />
              <mxPoint x="335" y="600" />
            </Array>
          </mxGeometry>
        </mxCell>
        <mxCell id="zYBaCCxZsCV0XoSq2q6j-1" value="&lt;font style=&quot;font-size: 27px;&quot;&gt;Peliculas&lt;/font&gt;&lt;div&gt;&lt;font style=&quot;font-size: 27px;&quot;&gt;&lt;br&gt;&lt;/font&gt;&lt;/div&gt;&lt;div style=&quot;font-size: 20px;&quot;&gt;&lt;font style=&quot;font-size: 20px;&quot;&gt;fecha&lt;/font&gt;&lt;/div&gt;&lt;div style=&quot;font-size: 20px;&quot;&gt;&lt;font style=&quot;font-size: 20px;&quot;&gt;genero&lt;/font&gt;&lt;/div&gt;&lt;div style=&quot;font-size: 20px;&quot;&gt;&lt;font style=&quot;font-size: 20px;&quot;&gt;OscarsFK&lt;/font&gt;&lt;/div&gt;&lt;div style=&quot;font-size: 20px;&quot;&gt;&lt;font style=&quot;font-size: 20px;&quot;&gt;directorFK&lt;/font&gt;&lt;/div&gt;&lt;div style=&quot;font-size: 20px;&quot;&gt;&lt;font style=&quot;font-size: 20px;&quot;&gt;actores principalesFK&lt;/font&gt;&lt;/div&gt;&lt;div style=&quot;font-size: 20px;&quot;&gt;&lt;font style=&quot;font-size: 20px;&quot;&gt;ProductoraFK&lt;/font&gt;&lt;/div&gt;&lt;div style=&quot;font-size: 20px;&quot;&gt;&lt;font style=&quot;font-size: 20px;&quot;&gt;paisFK&lt;/font&gt;&lt;/div&gt;" style="rounded=1;whiteSpace=wrap;html=1;" parent="1" vertex="1">
          <mxGeometry x="590" y="242.5" width="190" height="267.5" as="geometry" />
        </mxCell>
        <mxCell id="Gb3tEwWbbEehNKneOIiz-47" style="edgeStyle=orthogonalEdgeStyle;rounded=1;orthogonalLoop=1;jettySize=auto;html=1;strokeColor=#00ffe1;strokeWidth=3;curved=0;" parent="1" source="zYBaCCxZsCV0XoSq2q6j-4" target="zYBaCCxZsCV0XoSq2q6j-5" edge="1">
          <mxGeometry relative="1" as="geometry">
            <Array as="points">
              <mxPoint x="1410" y="1300" />
              <mxPoint x="160" y="1300" />
            </Array>
          </mxGeometry>
        </mxCell>
        <mxCell id="zYBaCCxZsCV0XoSq2q6j-4" value="&lt;span style=&quot;font-size: 27px;&quot;&gt;Actores&lt;/span&gt;&lt;div style=&quot;font-size: 20px;&quot;&gt;&lt;span style=&quot;&quot;&gt;&lt;br&gt;&lt;/span&gt;&lt;/div&gt;&lt;div style=&quot;font-size: 20px;&quot;&gt;peliculas FK&lt;/div&gt;&lt;div style=&quot;font-size: 20px;&quot;&gt;nombre&lt;/div&gt;&lt;div style=&quot;font-size: 20px;&quot;&gt;fecha nacimiento&lt;/div&gt;&lt;div style=&quot;font-size: 20px;&quot;&gt;Directores FK&lt;/div&gt;&lt;div style=&quot;font-size: 20px;&quot;&gt;genero&lt;/div&gt;" style="rounded=1;whiteSpace=wrap;html=1;" parent="1" vertex="1">
          <mxGeometry x="1350" y="230" width="190" height="250" as="geometry" />
        </mxCell>
        <mxCell id="zYBaCCxZsCV0XoSq2q6j-5" value="&lt;font style=&quot;font-size: 27px;&quot;&gt;Directores&lt;/font&gt;&lt;div&gt;&lt;br&gt;&lt;/div&gt;&lt;div style=&quot;font-size: 20px;&quot;&gt;&lt;div&gt;&lt;font style=&quot;font-size: 20px;&quot;&gt;peliculas FK&lt;/font&gt;&lt;/div&gt;&lt;div&gt;&lt;span style=&quot;&quot;&gt;nombre&lt;/span&gt;&lt;/div&gt;&lt;div&gt;&lt;span style=&quot;&quot;&gt;fecha nacimiento&lt;/span&gt;&lt;/div&gt;&lt;div&gt;&lt;span style=&quot;&quot;&gt;actores FK&lt;/span&gt;&lt;/div&gt;&lt;/div&gt;" style="rounded=1;whiteSpace=wrap;html=1;" parent="1" vertex="1">
          <mxGeometry x="30" y="232.5" width="190" height="245" as="geometry" />
        </mxCell>
        <mxCell id="zYBaCCxZsCV0XoSq2q6j-6" value="&lt;font style=&quot;font-size: 27px;&quot;&gt;Productoras&lt;/font&gt;&lt;div&gt;&lt;font style=&quot;font-size: 27px;&quot;&gt;&lt;br&gt;&lt;/font&gt;&lt;/div&gt;&lt;div style=&quot;font-size: 20px;&quot;&gt;peliculas FK&lt;/div&gt;&lt;div style=&quot;font-size: 20px;&quot;&gt;inicio de actividades&lt;/div&gt;&lt;div style=&quot;font-size: 20px;&quot;&gt;vigente&lt;/div&gt;" style="rounded=1;whiteSpace=wrap;html=1;" parent="1" vertex="1">
          <mxGeometry x="590" y="970" width="190" height="200" as="geometry" />
        </mxCell>
        <mxCell id="Gb3tEwWbbEehNKneOIiz-9" style="edgeStyle=orthogonalEdgeStyle;rounded=0;orthogonalLoop=1;jettySize=auto;html=1;exitX=0.5;exitY=1;exitDx=0;exitDy=0;" parent="1" source="zYBaCCxZsCV0XoSq2q6j-5" target="zYBaCCxZsCV0XoSq2q6j-5" edge="1">
          <mxGeometry relative="1" as="geometry" />
        </mxCell>
        <mxCell id="Gb3tEwWbbEehNKneOIiz-15" style="edgeStyle=orthogonalEdgeStyle;rounded=1;orthogonalLoop=1;jettySize=auto;html=1;entryX=0;entryY=0.5;entryDx=0;entryDy=0;strokeWidth=2;curved=0;" parent="1" source="Gb3tEwWbbEehNKneOIiz-14" target="zYBaCCxZsCV0XoSq2q6j-4" edge="1">
          <mxGeometry relative="1" as="geometry" />
        </mxCell>
        <mxCell id="Gb3tEwWbbEehNKneOIiz-16" style="edgeStyle=orthogonalEdgeStyle;rounded=1;orthogonalLoop=1;jettySize=auto;html=1;strokeWidth=2;curved=0;" parent="1" source="Gb3tEwWbbEehNKneOIiz-14" edge="1">
          <mxGeometry relative="1" as="geometry">
            <mxPoint x="790" y="355" as="targetPoint" />
          </mxGeometry>
        </mxCell>
        <mxCell id="Gb3tEwWbbEehNKneOIiz-14" value="&lt;span style=&quot;font-size: 20px;&quot;&gt;protagoniza&lt;/span&gt;" style="rhombus;whiteSpace=wrap;html=1;" parent="1" vertex="1">
          <mxGeometry x="990" y="247.5" width="160" height="215" as="geometry" />
        </mxCell>
        <mxCell id="Gb3tEwWbbEehNKneOIiz-21" style="edgeStyle=orthogonalEdgeStyle;rounded=1;orthogonalLoop=1;jettySize=auto;html=1;strokeWidth=2;curved=0;" parent="1" source="Gb3tEwWbbEehNKneOIiz-17" edge="1">
          <mxGeometry relative="1" as="geometry">
            <mxPoint x="685" y="959.9999999999998" as="targetPoint" />
          </mxGeometry>
        </mxCell>
        <mxCell id="Gb3tEwWbbEehNKneOIiz-22" style="edgeStyle=orthogonalEdgeStyle;rounded=1;orthogonalLoop=1;jettySize=auto;html=1;strokeWidth=2;curved=0;" parent="1" source="Gb3tEwWbbEehNKneOIiz-17" target="zYBaCCxZsCV0XoSq2q6j-1" edge="1">
          <mxGeometry relative="1" as="geometry">
            <mxPoint x="685" y="479.9999999999998" as="targetPoint" />
          </mxGeometry>
        </mxCell>
        <mxCell id="Gb3tEwWbbEehNKneOIiz-17" value="&lt;span style=&quot;font-size: 20px;&quot;&gt;Produjo&lt;/span&gt;" style="rhombus;whiteSpace=wrap;html=1;" parent="1" vertex="1">
          <mxGeometry x="605" y="620" width="160" height="215" as="geometry" />
        </mxCell>
        <mxCell id="Gb3tEwWbbEehNKneOIiz-19" style="edgeStyle=orthogonalEdgeStyle;rounded=1;orthogonalLoop=1;jettySize=auto;html=1;entryX=0;entryY=0.5;entryDx=0;entryDy=0;strokeWidth=2;curved=0;" parent="1" source="Gb3tEwWbbEehNKneOIiz-18" target="zYBaCCxZsCV0XoSq2q6j-1" edge="1">
          <mxGeometry relative="1" as="geometry" />
        </mxCell>
        <mxCell id="Gb3tEwWbbEehNKneOIiz-20" style="edgeStyle=orthogonalEdgeStyle;rounded=1;orthogonalLoop=1;jettySize=auto;html=1;strokeWidth=2;curved=0;" parent="1" source="Gb3tEwWbbEehNKneOIiz-18" edge="1">
          <mxGeometry relative="1" as="geometry">
            <mxPoint x="240" y="355" as="targetPoint" />
          </mxGeometry>
        </mxCell>
        <mxCell id="Gb3tEwWbbEehNKneOIiz-18" value="&lt;span style=&quot;font-size: 20px;&quot;&gt;dirigio&lt;/span&gt;" style="rhombus;whiteSpace=wrap;html=1;" parent="1" vertex="1">
          <mxGeometry x="330" y="290" width="160" height="215" as="geometry" />
        </mxCell>
        <mxCell id="Gb3tEwWbbEehNKneOIiz-26" style="edgeStyle=orthogonalEdgeStyle;rounded=1;orthogonalLoop=1;jettySize=auto;html=1;strokeWidth=2;curved=0;" parent="1" source="Gb3tEwWbbEehNKneOIiz-23" target="zYBaCCxZsCV0XoSq2q6j-5" edge="1">
          <mxGeometry relative="1" as="geometry">
            <mxPoint x="130" y="490" as="targetPoint" />
          </mxGeometry>
        </mxCell>
        <mxCell id="Gb3tEwWbbEehNKneOIiz-27" style="edgeStyle=orthogonalEdgeStyle;rounded=1;orthogonalLoop=1;jettySize=auto;html=1;strokeWidth=2;curved=0;" parent="1" edge="1">
          <mxGeometry relative="1" as="geometry">
            <mxPoint x="685" y="240" as="targetPoint" />
            <mxPoint x="345" y="1685" as="sourcePoint" />
            <Array as="points">
              <mxPoint x="345" y="1760" />
              <mxPoint x="-110" y="1760" />
              <mxPoint x="-110" y="160" />
              <mxPoint x="685" y="160" />
            </Array>
          </mxGeometry>
        </mxCell>
        <mxCell id="Gb3tEwWbbEehNKneOIiz-28" style="edgeStyle=orthogonalEdgeStyle;rounded=1;orthogonalLoop=1;jettySize=auto;html=1;strokeWidth=2;curved=0;" parent="1" source="Gb3tEwWbbEehNKneOIiz-23" target="zYBaCCxZsCV0XoSq2q6j-4" edge="1">
          <mxGeometry relative="1" as="geometry">
            <mxPoint x="1450" y="210" as="targetPoint" />
          </mxGeometry>
        </mxCell>
        <mxCell id="Gb3tEwWbbEehNKneOIiz-23" value="&lt;span style=&quot;font-size: 27px;&quot;&gt;Pais&lt;/span&gt;&lt;div&gt;&lt;span style=&quot;font-size: 27px;&quot;&gt;&lt;br&gt;&lt;/span&gt;&lt;/div&gt;&lt;div&gt;&lt;span style=&quot;font-size: 27px;&quot;&gt;peliculasFK&lt;/span&gt;&lt;/div&gt;&lt;div&gt;&lt;span style=&quot;font-size: 27px;&quot;&gt;actoresFK&lt;/span&gt;&lt;/div&gt;&lt;div&gt;&lt;span style=&quot;font-size: 27px;&quot;&gt;oscarsFK&lt;/span&gt;&lt;/div&gt;" style="rounded=1;whiteSpace=wrap;html=1;" parent="1" vertex="1">
          <mxGeometry x="240" y="1420" width="190" height="245" as="geometry" />
        </mxCell>
        <mxCell id="Gb3tEwWbbEehNKneOIiz-24" style="edgeStyle=orthogonalEdgeStyle;rounded=0;orthogonalLoop=1;jettySize=auto;html=1;exitX=0.5;exitY=1;exitDx=0;exitDy=0;" parent="1" source="Gb3tEwWbbEehNKneOIiz-23" target="Gb3tEwWbbEehNKneOIiz-23" edge="1">
          <mxGeometry relative="1" as="geometry" />
        </mxCell>
        <mxCell id="Gb3tEwWbbEehNKneOIiz-50" style="edgeStyle=orthogonalEdgeStyle;rounded=0;orthogonalLoop=1;jettySize=auto;html=1;" parent="1" source="Gb3tEwWbbEehNKneOIiz-29" target="zYBaCCxZsCV0XoSq2q6j-1" edge="1">
          <mxGeometry relative="1" as="geometry">
            <Array as="points">
              <mxPoint x="940" y="300" />
            </Array>
          </mxGeometry>
        </mxCell>
        <mxCell id="Gb3tEwWbbEehNKneOIiz-29" value="&lt;font style=&quot;font-size: 31px;&quot;&gt;Oscars&lt;/font&gt;&lt;div&gt;&lt;font style=&quot;font-size: 31px;&quot;&gt;&lt;br&gt;&lt;/font&gt;&lt;/div&gt;&lt;div&gt;&lt;font style=&quot;font-size: 31px;&quot;&gt;año&lt;/font&gt;&lt;/div&gt;&lt;div&gt;&lt;span style=&quot;font-size: 31px;&quot;&gt;pelicula&lt;/span&gt;&lt;/div&gt;&lt;div&gt;&lt;span style=&quot;font-size: 31px;&quot;&gt;actor&lt;/span&gt;&lt;/div&gt;&lt;div&gt;&lt;span style=&quot;font-size: 31px;&quot;&gt;actris&lt;/span&gt;&lt;/div&gt;&lt;div&gt;&lt;span style=&quot;font-size: 31px;&quot;&gt;director&lt;/span&gt;&lt;/div&gt;" style="rounded=1;whiteSpace=wrap;html=1;" parent="1" vertex="1">
          <mxGeometry x="590" y="-490" width="400" height="340" as="geometry" />
        </mxCell>
        <mxCell id="Gb3tEwWbbEehNKneOIiz-30" style="edgeStyle=orthogonalEdgeStyle;rounded=0;orthogonalLoop=1;jettySize=auto;html=1;exitX=0.5;exitY=1;exitDx=0;exitDy=0;" parent="1" source="Gb3tEwWbbEehNKneOIiz-29" target="Gb3tEwWbbEehNKneOIiz-29" edge="1">
          <mxGeometry relative="1" as="geometry" />
        </mxCell>
        <mxCell id="Gb3tEwWbbEehNKneOIiz-35" style="edgeStyle=orthogonalEdgeStyle;rounded=1;orthogonalLoop=1;jettySize=auto;html=1;entryX=0.25;entryY=0;entryDx=0;entryDy=0;strokeColor=#00FF00;strokeWidth=2;curved=0;" parent="1" source="Gb3tEwWbbEehNKneOIiz-31" target="Gb3tEwWbbEehNKneOIiz-29" edge="1">
          <mxGeometry relative="1" as="geometry" />
        </mxCell>
        <mxCell id="Gb3tEwWbbEehNKneOIiz-40" style="edgeStyle=orthogonalEdgeStyle;rounded=1;orthogonalLoop=1;jettySize=auto;html=1;strokeWidth=2;curved=0;" parent="1" source="Gb3tEwWbbEehNKneOIiz-31" target="zYBaCCxZsCV0XoSq2q6j-4" edge="1">
          <mxGeometry relative="1" as="geometry">
            <Array as="points">
              <mxPoint x="593" y="-750" />
              <mxPoint x="1445" y="-750" />
            </Array>
          </mxGeometry>
        </mxCell>
        <mxCell id="Gb3tEwWbbEehNKneOIiz-41" style="edgeStyle=orthogonalEdgeStyle;rounded=1;orthogonalLoop=1;jettySize=auto;html=1;strokeWidth=2;curved=0;" parent="1" source="Gb3tEwWbbEehNKneOIiz-31" target="zYBaCCxZsCV0XoSq2q6j-5" edge="1">
          <mxGeometry relative="1" as="geometry" />
        </mxCell>
        <mxCell id="Gb3tEwWbbEehNKneOIiz-31" value="&lt;span style=&quot;font-size: 27px;&quot;&gt;mejor_actorFK&lt;/span&gt;" style="ellipse;whiteSpace=wrap;html=1;" parent="1" vertex="1">
          <mxGeometry x="480" y="-730" width="225" height="160" as="geometry" />
        </mxCell>
        <mxCell id="Gb3tEwWbbEehNKneOIiz-37" style="edgeStyle=orthogonalEdgeStyle;rounded=1;orthogonalLoop=1;jettySize=auto;html=1;fillColor=#dae8fc;strokeColor=#00FF00;strokeWidth=2;curved=0;" parent="1" source="Gb3tEwWbbEehNKneOIiz-32" target="Gb3tEwWbbEehNKneOIiz-29" edge="1">
          <mxGeometry relative="1" as="geometry">
            <mxPoint x="840" y="-500" as="targetPoint" />
            <Array as="points">
              <mxPoint x="830" y="-840" />
            </Array>
          </mxGeometry>
        </mxCell>
        <mxCell id="Gb3tEwWbbEehNKneOIiz-44" style="edgeStyle=orthogonalEdgeStyle;rounded=1;orthogonalLoop=1;jettySize=auto;html=1;entryX=0.75;entryY=0;entryDx=0;entryDy=0;fillColor=#f8cecc;strokeColor=#1100ff;strokeWidth=2;curved=0;endArrow=ERmany;endFill=0;startArrow=ERmany;startFill=0;" parent="1" source="Gb3tEwWbbEehNKneOIiz-32" target="zYBaCCxZsCV0XoSq2q6j-4" edge="1">
          <mxGeometry relative="1" as="geometry" />
        </mxCell>
        <mxCell id="Gb3tEwWbbEehNKneOIiz-32" value="&lt;span style=&quot;font-size: 27px;&quot;&gt;mejor_actrisFK&lt;/span&gt;" style="ellipse;whiteSpace=wrap;html=1;" parent="1" vertex="1">
          <mxGeometry x="880" y="-930" width="225" height="160" as="geometry" />
        </mxCell>
        <mxCell id="Gb3tEwWbbEehNKneOIiz-38" style="edgeStyle=orthogonalEdgeStyle;rounded=1;orthogonalLoop=1;jettySize=auto;html=1;strokeColor=#00FF00;strokeWidth=2;curved=0;" parent="1" source="Gb3tEwWbbEehNKneOIiz-33" target="Gb3tEwWbbEehNKneOIiz-29" edge="1">
          <mxGeometry relative="1" as="geometry">
            <mxPoint x="770" y="-510" as="targetPoint" />
            <Array as="points">
              <mxPoint x="790" y="-840" />
            </Array>
          </mxGeometry>
        </mxCell>
        <mxCell id="Gb3tEwWbbEehNKneOIiz-56" style="edgeStyle=orthogonalEdgeStyle;rounded=1;orthogonalLoop=1;jettySize=auto;html=1;curved=0;strokeColor=#fc0303;strokeWidth=3;" parent="1" source="Gb3tEwWbbEehNKneOIiz-33" target="Gb3tEwWbbEehNKneOIiz-23" edge="1">
          <mxGeometry relative="1" as="geometry">
            <Array as="points">
              <mxPoint x="592" y="-1090" />
              <mxPoint x="-280" y="-1090" />
              <mxPoint x="-280" y="1950" />
              <mxPoint x="380" y="1950" />
            </Array>
          </mxGeometry>
        </mxCell>
        <mxCell id="Gb3tEwWbbEehNKneOIiz-33" value="&lt;span style=&quot;font-size: 27px;&quot;&gt;mejor_peliculaFK&lt;/span&gt;" style="ellipse;whiteSpace=wrap;html=1;" parent="1" vertex="1">
          <mxGeometry x="480" y="-930" width="225" height="160" as="geometry" />
        </mxCell>
        <mxCell id="Gb3tEwWbbEehNKneOIiz-36" style="edgeStyle=orthogonalEdgeStyle;rounded=1;orthogonalLoop=1;jettySize=auto;html=1;entryX=0.75;entryY=0;entryDx=0;entryDy=0;strokeColor=#00FF00;strokeWidth=2;curved=0;" parent="1" source="Gb3tEwWbbEehNKneOIiz-34" target="Gb3tEwWbbEehNKneOIiz-29" edge="1">
          <mxGeometry relative="1" as="geometry" />
        </mxCell>
        <mxCell id="Gb3tEwWbbEehNKneOIiz-42" style="edgeStyle=orthogonalEdgeStyle;rounded=1;orthogonalLoop=1;jettySize=auto;html=1;entryX=0.75;entryY=0;entryDx=0;entryDy=0;strokeColor=#ff0000;strokeWidth=3;curved=0;" parent="1" source="Gb3tEwWbbEehNKneOIiz-34" target="zYBaCCxZsCV0XoSq2q6j-5" edge="1">
          <mxGeometry relative="1" as="geometry">
            <Array as="points">
              <mxPoint x="1070" y="-510" />
              <mxPoint x="173" y="-510" />
            </Array>
          </mxGeometry>
        </mxCell>
        <mxCell id="Gb3tEwWbbEehNKneOIiz-43" style="edgeStyle=orthogonalEdgeStyle;rounded=1;orthogonalLoop=1;jettySize=auto;html=1;entryX=0.25;entryY=0;entryDx=0;entryDy=0;strokeWidth=2;curved=0;" parent="1" source="Gb3tEwWbbEehNKneOIiz-34" target="zYBaCCxZsCV0XoSq2q6j-4" edge="1">
          <mxGeometry relative="1" as="geometry" />
        </mxCell>
        <mxCell id="Gb3tEwWbbEehNKneOIiz-34" value="&lt;span style=&quot;font-size: 27px;&quot;&gt;mejor_directorFK&lt;/span&gt;" style="ellipse;whiteSpace=wrap;html=1;" parent="1" vertex="1">
          <mxGeometry x="880" y="-730" width="225" height="160" as="geometry" />
        </mxCell>
        <mxCell id="Gb3tEwWbbEehNKneOIiz-39" style="edgeStyle=orthogonalEdgeStyle;rounded=1;orthogonalLoop=1;jettySize=auto;html=1;entryX=0.684;entryY=0.078;entryDx=0;entryDy=0;entryPerimeter=0;strokeColor=#1100ff;strokeWidth=2;curved=0;" parent="1" source="Gb3tEwWbbEehNKneOIiz-33" target="zYBaCCxZsCV0XoSq2q6j-1" edge="1">
          <mxGeometry relative="1" as="geometry">
            <Array as="points">
              <mxPoint x="330" y="-850" />
              <mxPoint x="330" y="-120" />
              <mxPoint x="720" y="-120" />
            </Array>
          </mxGeometry>
        </mxCell>
        <mxCell id="Gb3tEwWbbEehNKneOIiz-45" style="edgeStyle=orthogonalEdgeStyle;rounded=1;orthogonalLoop=1;jettySize=auto;html=1;strokeColor=#1100ff;strokeWidth=2;curved=0;" parent="1" source="Gb3tEwWbbEehNKneOIiz-32" target="zYBaCCxZsCV0XoSq2q6j-5" edge="1">
          <mxGeometry relative="1" as="geometry">
            <Array as="points">
              <mxPoint x="993" y="-990" />
              <mxPoint x="50" y="-990" />
            </Array>
          </mxGeometry>
        </mxCell>
        <mxCell id="Gb3tEwWbbEehNKneOIiz-46" value="Text" style="edgeLabel;html=1;align=center;verticalAlign=middle;resizable=0;points=[];" parent="Gb3tEwWbbEehNKneOIiz-45" vertex="1" connectable="0">
          <mxGeometry x="-0.1949" y="8" relative="1" as="geometry">
            <mxPoint y="-1" as="offset" />
          </mxGeometry>
        </mxCell>
        <mxCell id="Gb3tEwWbbEehNKneOIiz-49" value="&lt;span style=&quot;font-size: 20px;&quot;&gt;Trabajo con&lt;/span&gt;" style="rhombus;whiteSpace=wrap;html=1;" parent="1" vertex="1">
          <mxGeometry x="930" y="1190" width="160" height="215" as="geometry" />
        </mxCell>
      </root>
    </mxGraphModel>
  </diagram>
</mxfile>
